<svg aria-hidden="true" style="position: absolute; width: 0; height: 0; overflow: hidden;" version="1.1" xmlns="http://www.w3.org/2000/svg"
xmlns:href="http://www.w3.org/1999/xlink">
<defs>
<symbol id="icon-hamburger" viewBox="0 0 47 32">
<path stroke-linejoin="round" stroke-linecap="round" stroke-miterlimit="4" stroke-width="4.3636" d="M1.961 29.153h42.964M1.961 15.615h42.964M1.961 2.077h42.964"></path>
</symbol>
<symbol id="icon-charm_menu-hamburger-1" viewBox="0 0 47 32">
<path d="M-0.222 2.077c0-1.205 0.977-2.182 2.182-2.182h42.965c1.205 0 2.182 0.977 2.182 2.182s-0.977 2.182-2.182 2.182h-42.965c-1.205 0-2.182-0.977-2.182-2.182zM-0.222 15.615c0-1.205 0.977-2.182 2.182-2.182h42.965c1.205 0 2.182 0.977 2.182 2.182s-0.977 2.182-2.182 2.182h-42.965c-1.205 0-2.182-0.977-2.182-2.182zM-0.222 29.154c0-1.205 0.977-2.182 2.182-2.182h42.965c1.205 0 2.182 0.977 2.182 2.182s-0.977 2.182-2.182 2.182h-42.965c-1.205 0-2.182-0.977-2.182-2.182z"></path>
</symbol>
</defs>
</svg>
